HIERARCHY
ROOT SpineBase
{
  OFFSET 0.000000 0.000000 0.000000
  CHANNELS 6 Xposition Yposition Zposition Zrotation Xrotation Yrotation
  JOINT SpineMid
  {
    OFFSET 0.000000 30.758438 0.000000
    CHANNELS 3 Zrotation Xrotation Yrotation
    JOINT SpineShoulder
    {
      OFFSET -0.013202 22.806535 -0.716091
      CHANNELS 3 Zrotation Xrotation Yrotation
      JOINT Neck
      {
        OFFSET -0.013900 7.527453 -0.530033
        CHANNELS 3 Zrotation Xrotation Yrotation
        JOINT Head
        {
          OFFSET 0.032749 15.041394 0.775902
          CHANNELS 3 Zrotation Xrotation Yrotation
          End Site
          {
            OFFSET 0 0 0
          }
        }
      }
      JOINT ShoulderLeft
      {
        OFFSET -16.609158 -3.125247 -1.361231
        CHANNELS 3 Zrotation Xrotation Yrotation
        JOINT ElbowLeft
        {
          OFFSET -5.245389 -26.614666 -1.635315
          CHANNELS 3 Zrotation Xrotation Yrotation
          JOINT WristLeft
          {
            OFFSET 1.961285 -20.915156 -5.649774
            CHANNELS 3 Zrotation Xrotation Yrotation
            JOINT HandLeft
            {
              OFFSET 2.473686 -3.614521 1.196535
              CHANNELS 3 Zrotation Xrotation Yrotation
              JOINT HandTipLeft
              {
                OFFSET 2.198466 -5.199214 -0.021019
                CHANNELS 3 Zrotation Xrotation Yrotation
                End Site
                {
                  OFFSET 0 0 0
                }
              }
              JOINT ThumbLeft
              {
                OFFSET 2.283809 2.950550 -2.338713
                CHANNELS 3 Zrotation Xrotation Yrotation
                End Site
                {
                  OFFSET 0 0 0
                }
              }
            }
          }
        }
      }
      JOINT ShoulderRight
      {
        OFFSET 17.149137 -4.853924 -2.189620
        CHANNELS 3 Zrotation Xrotation Yrotation
        JOINT ElbowRight
        {
          OFFSET 6.925931 -27.634174 0.878744
          CHANNELS 3 Zrotation Xrotation Yrotation
          JOINT WristRight
          {
            OFFSET 1.904344 -21.165602 -4.146083
            CHANNELS 3 Zrotation Xrotation Yrotation
            JOINT HandRight
            {
              OFFSET -0.209167 -4.391792 -0.539146
              CHANNELS 3 Zrotation Xrotation Yrotation
              JOINT HandTipRight
              {
                OFFSET -0.428685 -7.100589 1.330320
                CHANNELS 3 Zrotation Xrotation Yrotation
                End Site
                {
                  OFFSET 0 0 0
                }
              }
              JOINT ThumbRight
              {
                OFFSET 2.285394 -1.329572 -3.542532
                CHANNELS 3 Zrotation Xrotation Yrotation
                End Site
                {
                  OFFSET 0 0 0
                }
              }
            }
          }
        }
      }
    }
  }
  JOINT HipLeft
  {
    OFFSET -7.989623 0.492319 -3.228633
    CHANNELS 3 Zrotation Xrotation Yrotation
    JOINT KneeLeft
    {
      OFFSET -2.776346 -34.118350 7.409784
      CHANNELS 3 Zrotation Xrotation Yrotation
      JOINT AnkleLeft
      {
        OFFSET -1.847260 -33.282524 4.558496
        CHANNELS 3 Zrotation Xrotation Yrotation
        JOINT FootLeft
        {
          OFFSET -0.403294 -3.798340 -11.623874
          CHANNELS 3 Zrotation Xrotation Yrotation
          End Site
          {
            OFFSET 0 0 0
          }
        }
      }
    }
  }
  JOINT HipRight
  {
    OFFSET 7.621147 0.362184 -3.559624
    CHANNELS 3 Zrotation Xrotation Yrotation
    JOINT KneeRight
    {
      OFFSET -0.126096 -31.969240 8.659522
      CHANNELS 3 Zrotation Xrotation Yrotation
      JOINT AnkleRight
      {
        OFFSET -2.097544 -35.170641 8.400738
        CHANNELS 3 Zrotation Xrotation Yrotation
        JOINT FootRight
        {
          OFFSET 8.954782 -5.079523 1.288455
          CHANNELS 3 Zrotation Xrotation Yrotation
          End Site
          {
            OFFSET 0 0 0
          }
        }
      }
    }
  }
}
MOTION
Frames: 13
Frame Time: 0.033333
21.461522 75.877720 374.393957 7.608399 -10.090812 -22.405512 0.026780 0.594491 23.259198 0.087489 -0.121142 0.297273 -9.640127 -2.375256 0.371768 0.000000 0.000000 0.000000 -0.902251 11.103691 -1.833086 -2.523733 5.427645 -0.052057 -27.241130 12.288941 8.561984 4.521621 -20.587872 -9.426782 0.000000 0.000000 0.000000 0.000000 0.000000 0.000000 -3.089049 -10.153084 -4.655025 -8.443818 8.604896 5.988970 6.513748 -19.307156 1.463608 3.591344 20.987925 -1.408592 0.000000 0.000000 0.000000 0.000000 0.000000 0.000000 -24.775335 18.838227 23.730052 5.583560 -16.989604 3.151372 4.384397 -26.092898 -8.199443 0.000000 0.000000 0.000000 -10.227338 1.867736 23.345262 3.935680 0.482852 1.022437 -16.192219 15.984630 24.769903 0.000000 0.000000 0.000000
20.531108 75.846396 372.571843 8.756910 -11.505535 -24.207293 -0.070201 0.535805 25.306569 0.056177 -0.131878 0.336377 -10.420738 -1.928547 0.510459 0.000000 0.000000 0.000000 -0.238448 11.959042 -2.158933 -6.492951 13.628436 1.193503 -26.934603 3.682385 0.651972 7.957030 -16.239279 -4.538529 0.000000 0.000000 0.000000 0.000000 0.000000 0.000000 -3.879987 -10.790336 -5.085571 -8.363370 8.380713 6.332192 10.059790 -25.352006 2.288302 4.255978 23.841162 -1.773386 0.000000 0.000000 0.000000 0.000000 0.000000 0.000000 -25.600559 16.806253 25.777210 5.860737 -15.647859 3.082137 3.503134 -29.471940 -11.293207 0.000000 0.000000 0.000000 -10.321003 1.410088 25.666503 3.279598 1.747550 0.786543 -10.251550 13.771943 17.472949 0.000000 0.000000 0.000000
19.505879 75.874915 371.017002 9.483542 -12.602406 -25.620323 0.085311 0.275651 26.923319 0.105562 -0.234675 0.369503 -10.851834 -1.388083 0.644449 0.000000 0.000000 0.000000 0.276738 12.529677 -2.340046 -10.897913 23.092793 3.152690 -26.734200 -5.397252 -7.854821 7.110677 -13.105700 -1.796365 0.000000 0.000000 0.000000 0.000000 0.000000 0.000000 -5.007093 -10.332532 -5.298502 -7.883607 7.731740 6.404982 12.596128 -30.251917 3.146641 1.387768 40.221858 -2.938434 0.000000 0.000000 0.000000 0.000000 0.000000 0.000000 -25.465474 14.982532 27.365506 5.787798 -14.022147 2.857413 2.634097 -29.980033 -11.429762 0.000000 0.000000 0.000000 -10.038809 1.132880 27.511788 2.768998 3.118689 0.566639 -14.639848 12.670195 15.829964 0.000000 0.000000 0.000000
18.505800 75.908791 369.720612 9.759519 -13.429860 -25.937851 0.238005 0.050302 27.368430 0.124724 -0.269985 0.380741 -10.320836 -1.564918 0.640364 0.000000 0.000000 0.000000 0.824990 13.022680 -2.491530 -14.763059 31.792811 5.502013 -27.791204 -13.799686 -16.371625 8.930132 -8.525637 2.677237 0.000000 0.000000 0.000000 0.000000 0.000000 0.000000 -5.724314 -9.988308 -5.452006 -7.468781 7.686462 6.509997 11.520243 -32.474746 3.528320 5.620656 38.353314 -4.918780 0.000000 0.000000 0.000000 0.000000 0.000000 0.000000 -24.566626 14.009093 27.883487 5.387077 -12.069270 2.520351 2.035938 -31.269628 -11.893952 0.000000 0.000000 0.000000 -9.416742 0.976689 28.139369 2.649767 4.752783 0.382924 -9.814140 10.119558 10.585538 0.000000 0.000000 0.000000
17.643857 75.906941 368.507493 10.167350 -14.452012 -26.951381 0.497354 -0.144840 28.545776 0.098951 -0.296463 0.402239 -10.084408 -1.456927 0.678372 0.000000 0.000000 0.000000 1.292638 12.884148 -2.448585 -17.113062 37.995810 6.893032 -30.816595 -17.481307 -22.383417 9.344533 -7.758602 4.321305 0.000000 0.000000 0.000000 0.000000 0.000000 0.000000 -6.175289 -9.077589 -5.499789 -7.745765 7.285326 6.707902 12.124807 -36.767419 4.182936 -3.128999 59.167110 -1.986558 0.000000 0.000000 0.000000 0.000000 0.000000 0.000000 -24.139359 12.869141 29.147190 4.967189 -10.399360 2.189651 1.616391 -31.921835 -12.729620 0.000000 0.000000 0.000000 -9.398299 0.821148 29.441443 3.063396 6.464152 0.252821 -18.308644 7.020839 4.425255 0.000000 0.000000 0.000000
16.963815 75.885100 367.627647 10.408337 -15.251935 -27.413275 0.871386 -0.408923 29.136026 0.099073 -0.333589 0.419929 -9.909209 -1.427776 0.720698 0.000000 0.000000 0.000000 0.753074 13.875271 -2.425399 -16.922170 38.911185 6.940808 -29.625333 -17.489041 -20.567437 6.526432 -7.083579 3.760944 0.000000 0.000000 0.000000 0.000000 0.000000 0.000000 -6.733604 -7.893554 -5.457278 -7.638769 7.194338 6.721089 11.385720 -42.954851 5.155688 -63.622234 82.265219 53.510965 0.000000 0.000000 0.000000 0.000000 0.000000 0.000000 -23.864477 12.522896 29.860352 4.640762 -9.646008 1.989362 1.328242 -32.098657 -13.826811 0.000000 0.000000 0.000000 -9.730436 1.236241 30.090281 3.533157 6.965221 0.233177 -23.992601 5.192464 -1.008236 0.000000 0.000000 0.000000
16.625181 75.880025 367.184003 10.553681 -15.800426 -27.091914 1.338604 -0.679280 28.903048 0.128161 -0.327248 0.432021 -10.312164 -1.229726 0.843054 0.000000 0.000000 0.000000 0.736100 14.927779 -2.649693 -14.148755 33.962023 4.601671 -30.232655 -10.844294 -14.162922 6.635503 -8.786417 1.798497 0.000000 0.000000 0.000000 0.000000 0.000000 0.000000 -7.303328 -6.427661 -5.286798 -7.089050 6.738643 6.373629 5.684299 -44.054703 4.684895 -116.364850 80.077288 107.155215 0.000000 0.000000 0.000000 0.000000 0.000000 0.000000 -24.041150 13.068084 29.783553 4.450381 -9.919186 1.948113 1.382062 -31.520471 -15.136625 0.000000 0.000000 0.000000 -10.528718 1.701038 29.824515 4.376424 6.903983 0.350305 -28.474011 9.811068 11.879274 0.000000 0.000000 0.000000
16.563175 75.919137 367.049242 11.126500 -16.845823 -26.910234 1.616348 -0.981194 28.951225 0.058398 -0.363108 0.464270 -9.780472 -1.622103 0.825213 0.000000 0.000000 0.000000 2.701393 15.207264 -3.307401 -16.590365 33.009845 4.532429 -40.068795 4.588792 -5.930469 13.689243 -15.959178 -0.544515 0.000000 0.000000 0.000000 0.000000 0.000000 0.000000 -7.773418 -4.940308 -5.194918 -7.211241 6.781771 6.421907 1.705446 -39.738187 3.758487 -16.496759 81.702661 12.473247 0.000000 0.000000 0.000000 0.000000 0.000000 0.000000 -25.552037 14.053668 30.083542 4.686192 -10.873242 2.098641 1.428044 -30.951830 -16.020625 0.000000 0.000000 0.000000 -12.130659 2.602281 29.870997 5.271007 6.568384 0.512650 -37.406847 9.802745 12.269768 0.000000 0.000000 0.000000
16.917184 76.041400 367.518347 11.872235 -18.101149 -26.969090 1.996690 -1.362635 29.319740 0.033563 -0.509194 0.513714 -9.073333 -1.551948 0.761311 0.000000 0.000000 0.000000 3.825654 16.852009 -4.157155 -18.236939 30.234284 4.302709 -69.806654 27.078183 18.644565 37.685906 -32.681098 4.542107 0.000000 0.000000 0.000000 0.000000 0.000000 0.000000 -8.461712 -2.961854 -5.041471 -7.360499 6.949782 6.481558 -1.047857 -34.042685 3.233034 15.438004 66.824709 -13.938439 0.000000 0.000000 0.000000 0.000000 0.000000 0.000000 -28.376971 15.501064 30.805806 5.441160 -12.697373 2.506045 1.628777 -30.024238 -16.945952 0.000000 0.000000 0.000000 -14.583928 4.136746 30.258792 6.380356 5.642141 0.802892 -54.638488 10.831558 26.153090 0.000000 0.000000 0.000000
16.904202 76.129347 367.605721 12.535494 -19.466205 -27.349203 2.235567 -1.685662 30.025699 -0.043356 -0.486861 0.543698 -8.054672 -1.724423 0.622318 0.000000 0.000000 0.000000 5.793673 17.566976 -5.083951 -20.148364 26.827315 3.833866 -84.210594 31.583877 44.834858 38.187152 -33.727091 7.435369 0.000000 0.000000 0.000000 0.000000 0.000000 0.000000 -8.949516 -1.177230 -4.905069 -7.348880 6.932148 6.472437 -5.393113 -29.246218 3.142139 19.951659 55.907302 -14.355393 0.000000 0.000000 0.000000 0.000000 0.000000 0.000000 -30.556966 16.443359 31.880332 5.889043 -13.739736 2.745316 1.664158 -29.327422 -17.645260 0.000000 0.000000 0.000000 -16.241453 5.311226 31.082310 7.267104 5.106189 0.998387 -64.962882 9.796934 28.773077 0.000000 0.000000 0.000000
16.864107 76.252305 367.913104 13.169255 -21.123184 -27.848268 2.366028 -1.870144 30.878796 -0.136754 -0.561119 0.585419 -7.026025 -1.051532 0.427977 0.000000 0.000000 0.000000 7.133419 19.990221 -6.391123 -22.037466 23.760001 3.935171 -103.365286 29.491434 65.527773 46.921688 -35.687201 18.040756 0.000000 0.000000 0.000000 0.000000 0.000000 0.000000 -9.330154 0.827443 -4.759214 -7.330612 6.913517 6.460555 -13.103370 -25.282181 3.580655 28.380830 44.144565 -16.061776 0.000000 0.000000 0.000000 0.000000 0.000000 0.000000 -33.135811 17.595315 33.275759 6.436442 -14.787497 3.034933 1.640083 -29.311160 -18.641276 0.000000 0.000000 0.000000 -17.175001 6.532878 32.184108 7.346877 4.648312 1.027729 -61.509337 10.978599 32.910527 0.000000 0.000000 0.000000
16.787641 76.478130 368.332509 13.733368 -22.880430 -28.397216 2.431344 -1.988880 31.790337 -0.219470 -0.643618 0.625001 -5.879256 0.083647 0.125157 0.000000 0.000000 0.000000 8.836807 21.867197 -7.747240 -24.073318 21.380544 4.013968 -107.945726 27.574337 70.891499 47.809634 -29.665908 26.197332 0.000000 0.000000 0.000000 0.000000 0.000000 0.000000 -9.607099 2.851216 -4.617091 -7.331444 6.911659 6.458602 -23.112419 -20.383076 4.961856 36.412988 34.789947 -16.711198 0.000000 0.000000 0.000000 0.000000 0.000000 0.000000 -35.635638 18.678294 34.814989 6.917068 -15.540166 3.287810 1.522381 -29.793038 -19.508754 0.000000 0.000000 0.000000 -17.508141 7.725189 33.386232 7.579468 5.499161 0.855225 -52.787605 13.655384 39.194394 0.000000 0.000000 0.000000
16.722810 76.717807 368.905373 14.223664 -24.680621 -28.907112 2.482372 -2.017669 32.650452 -0.297454 -0.768098 0.669826 -4.297265 0.740588 -0.340597 0.000000 0.000000 0.000000 10.357395 23.706937 -9.090542 -25.445977 19.623206 3.940985 -101.827664 29.249997 63.915938 41.112894 -17.251387 30.382546 0.000000 0.000000 0.000000 0.000000 0.000000 0.000000 -9.840918 4.872880 -4.473975 -7.334799 6.914618 6.458572 -35.038914 -16.664311 7.213075 43.981872 35.429346 -17.829490 0.000000 0.000000 0.000000 0.000000 0.000000 0.000000 -38.106260 19.733077 36.396774 7.383867 -16.046281 3.526456 1.382108 -30.468327 -20.150308 0.000000 0.000000 0.000000 -17.484703 8.876632 34.539600 8.069231 6.113198 0.704554 -53.284840 15.023060 43.888755 0.000000 0.000000 0.000000
